<svg xmlns="http://www.w3.org/2000/svg" width="48" height="48" viewBox="0 0 48 48">
  <path fill="#141414" fill-rule="evenodd" d="M128.000131,19.8526452 C133.648738,19.8526452 138.959336,22.0523146 142.953511,26.0464892 C146.947816,30.0407946 149.147486,35.3512625 149.147486,41 C149.147486,46.6487375 146.947816,51.9592054 142.953511,55.9535108 C138.959336,59.9476854 133.648738,62.1474857 128.000131,62.1474857 C122.351393,62.1474857 117.040795,59.9476854 113.04662,55.9535108 C109.052315,51.9592054 106.852645,46.6487375 106.852645,41 C106.852645,35.3512625 109.052315,30.0407946 113.04662,26.0464892 C117.040795,22.0523146 122.351393,19.8526452 128.000131,19.8526452 Z M121.664774,39.9184271 L128.035476,47.8858307 L117.834236,47.8730016 L116.488488,50.667523 L130.273502,50.684934 L131.61925,47.8905434 L123.010522,37.1240366 L121.664774,39.9184271 Z M139.511643,31.5023973 L125.726629,31.4848554 L124.381012,34.279246 L132.98974,45.0457528 L134.335357,42.2513623 L127.964785,34.2839587 L138.166026,34.2967878 L139.511643,31.5023973 Z M128.000131,17 C114.745169,17 104,27.7451686 104,41 C104,54.2548314 114.745169,65 128.000131,65 C141.254962,65 152.000131,54.2548314 152.000131,41 C152.000131,27.7451686 141.254962,17 128.000131,17" transform="translate(-104 -17)"/>
</svg>
