<svg xmlns="http://www.w3.org/2000/svg" width="200" height="23" viewBox="0 0 200 23">
  <path fill="#141414" fill-rule="evenodd" d="M184.253947,35.6117892 L180.827768,35.6117892 C180.797697,33.6583534 179.595445,32.516244 177.792365,32.516244 C176.019059,32.516244 174.937092,33.5681399 174.937092,35.281304 C174.937092,36.1527728 175.207583,36.7839698 175.778638,37.2347398 C176.349693,37.6855098 177.401589,38.196571 178.904255,38.7674768 C181.09826,39.5188097 182.630997,40.3904274 183.532537,41.3522586 C184.464297,42.2838697 184.915067,43.546115 184.915067,45.1089232 C184.915067,47.0322878 184.284019,48.5650248 183.021624,49.6770631 C181.759379,50.7891013 180.136429,51.3300848 178.152922,51.3300848 C173.614853,51.3300848 171.090214,48.7153807 171,44.6279331 L174.396108,44.6279331 C174.486322,47.0322878 175.808709,48.3546754 178.182993,48.3546754 C180.316856,48.3546754 181.518959,47.1525725 181.518959,45.3493438 C181.518959,43.7564644 180.40692,42.8549244 177.401589,41.863022 C175.388011,41.1718315 173.915267,40.3603562 172.953585,39.4287451 C172.021974,38.4969851 171.541132,37.2046686 171.541132,35.5517957 C171.541132,33.7784893 172.112038,32.3359658 173.254148,31.2239276 C174.396108,30.081967 175.928994,29.5109123 177.88243,29.5109123 C181.729308,29.5109123 184.103591,31.6447752 184.253947,35.6117892 Z M190.856358,29 L190.856358,37.5052316 C191.637762,36.0927793 192.96015,35.4014398 194.853592,35.4014398 C198.00928,35.4014398 199.782437,37.6255163 199.782437,41.0816179 L199.782437,50.9394572 L196.566607,50.9394572 L196.566607,41.712815 C196.566607,39.6390945 195.634996,38.5270562 193.981974,38.5270562 C192.148674,38.5270562 190.856358,40.0898644 190.856358,42.8549244 L190.856358,50.9394572 L187.670748,50.9394572 L187.670748,29 L190.856358,29 Z M216.539826,43.2154809 L216.539826,44.4478038 L205.449962,44.4478038 C205.600169,46.8820808 207.283262,48.444889 209.657545,48.444889 C211.520916,48.444889 212.723019,47.7236272 213.294074,46.2811038 L216.41969,46.2811038 C215.457859,49.4366425 213.083724,51.2699424 209.567332,51.2699424 C207.373326,51.2699424 205.570097,50.5486807 204.187716,49.1061572 C202.835258,47.6634849 202.143918,45.7401202 202.143918,43.3656879 C202.143918,41.0515468 202.835258,39.1281821 204.187716,37.6555875 C205.540175,36.1527728 207.343404,35.4014398 209.567332,35.4014398 C213.744844,35.4014398 216.539826,38.1663509 216.539826,43.2154809 Z M205.480033,41.9532356 L213.324145,41.9532356 C213.294074,39.6691657 211.791408,38.196571 209.53726,38.196571 C207.25319,38.196571 205.690382,39.7593792 205.480033,41.9532356 Z M233.399933,29 L233.399933,50.9394572 L230.604951,50.9394572 L230.394453,48.8055943 C229.252492,50.4584672 227.569399,51.2699424 225.345472,51.2699424 C223.271751,51.2699424 221.588658,50.5186095 220.266271,49.0159437 C218.944032,47.4832067 218.282764,45.5897643 218.282764,43.3357656 C218.282764,41.0816179 218.944032,39.1883245 220.266271,37.6855098 C221.618729,36.1527728 223.301822,35.4014398 225.375543,35.4014398 C227.569399,35.4014398 229.162279,36.1527728 230.214175,37.6255163 L230.214175,29 L233.399933,29 Z M221.588658,43.3357656 C221.588658,46.2508837 223.361965,48.2646108 225.916526,48.2646108 C227.088558,48.2646108 228.110383,47.843912 228.951929,46.9722943 C229.823547,46.1006767 230.244246,44.9284961 230.244246,43.4559014 L230.244246,43.3056944 C230.244246,41.8330997 229.823547,40.6609192 228.951929,39.7893015 C228.080312,38.8877616 227.088558,38.4369916 225.946598,38.4369916 C223.421958,38.4369916 221.588658,40.4505698 221.588658,43.3357656 Z M262.731988,36.3933422 L259.005395,36.3933422 C258.103706,33.898774 256.180193,32.6665999 253.234854,32.6665999 C251.191354,32.6665999 249.538332,33.3878617 248.246016,34.8604563 C246.953699,36.3031287 246.322502,38.1663509 246.322502,40.4204986 C246.322502,42.6744973 246.953699,44.5077973 248.246016,45.980392 C249.538332,47.4531355 251.221276,48.1743972 253.295146,48.1743972 C256.390691,48.1743972 258.344127,46.6717314 259.185673,44.2974479 L262.792131,44.2974479 C261.589879,48.7753742 258.344127,51.3300848 253.295146,51.3300848 C250.229523,51.3300848 247.705032,50.3082601 245.721525,48.2345396 C243.767941,46.160819 242.776187,43.5760373 242.776187,40.4204986 C242.776187,37.264811 243.767941,34.6801781 245.721525,32.6064576 C247.674961,30.532737 250.1996,29.5109123 253.234854,29.5109123 C258.253913,29.5109123 261.559957,32.0955452 262.731988,36.3933422 Z M272.433368,35.4014398 C274.717438,35.4014398 276.580809,36.1527728 278.053404,37.6255163 C279.525999,39.0981109 280.277331,41.0216245 280.277331,43.3357656 C280.277331,45.6499067 279.525999,47.5732713 278.053404,49.0460149 C276.580809,50.5186095 274.717438,51.2699424 272.433368,51.2699424 C270.149149,51.2699424 268.285927,50.5186095 266.813184,49.0460149 C265.340589,47.5732713 264.619327,45.6499067 264.619327,43.3357656 C264.619327,41.0216245 265.340589,39.0981109 266.813184,37.6255163 C268.285927,36.1527728 270.149149,35.4014398 272.433368,35.4014398 Z M272.46329,38.346778 C271.110832,38.346778 270.029013,38.8276192 269.187467,39.7593792 C268.345921,40.6909903 267.925222,41.8930932 267.925222,43.3357656 C267.925222,44.7782891 268.345921,45.980392 269.187467,46.912152 C270.029013,47.843912 271.110832,48.3247531 272.46329,48.3247531 C273.815749,48.3247531 274.897716,47.843912 275.709192,46.912152 C276.550738,45.980392 276.971437,44.7782891 276.971437,43.3357656 C276.971437,41.8930932 276.550738,40.6909903 275.709192,39.7593792 C274.897716,38.8276192 273.815749,38.346778 272.46329,38.346778 Z M282.861369,29 L286.047128,29 L286.047128,50.9394572 L282.861369,50.9394572 L282.861369,29 Z M289.536278,29 L292.722185,29 L292.722185,50.9394572 L289.536278,50.9394572 L289.536278,29 Z M309.669231,43.2154809 L309.669231,44.4478038 L298.579367,44.4478038 C298.729574,46.8820808 300.412518,48.444889 302.78695,48.444889 C304.650172,48.444889 305.852424,47.7236272 306.423479,46.2811038 L309.548946,46.2811038 C308.587264,49.4366425 306.212981,51.2699424 302.696737,51.2699424 C300.502731,51.2699424 298.699503,50.5486807 297.317121,49.1061572 C295.964663,47.6634849 295.273472,45.7401202 295.273472,43.3656879 C295.273472,41.0515468 295.964663,39.1281821 297.317121,37.6555875 C298.669431,36.1527728 300.472809,35.4014398 302.696737,35.4014398 C306.8741,35.4014398 309.669231,38.1663509 309.669231,43.2154809 Z M298.609289,41.9532356 L306.453401,41.9532356 C306.423479,39.6691657 304.920664,38.196571 302.666665,38.196571 C300.382595,38.196571 298.819787,39.7593792 298.609289,41.9532356 Z M325.778005,40.7812039 L322.652389,40.7812039 C322.141328,39.2182468 320.758947,38.346778 318.955718,38.346778 C317.723395,38.346778 316.731642,38.8276192 315.920315,39.7593792 C315.10884,40.6909903 314.718063,41.8930932 314.718063,43.3656879 C314.718063,44.7782891 315.10884,45.980392 315.920315,46.912152 C316.731642,47.843912 317.783537,48.3247531 319.01586,48.3247531 C320.789018,48.3247531 322.201619,47.3629219 322.652389,45.9203985 L325.807928,45.9203985 C325.056595,49.376649 322.381897,51.2699424 318.895576,51.2699424 C316.731642,51.2699424 314.928413,50.5486807 313.515812,49.076086 C312.103359,47.6033425 311.412169,45.679829 311.412169,43.3656879 C311.412169,41.0515468 312.103359,39.1582533 313.515812,37.6555875 C314.928413,36.1527728 316.701719,35.4014398 318.895576,35.4014398 C322.472111,35.4014398 325.146808,37.3249533 325.778005,40.7812039 Z M329.782385,32.0053317 L331.224462,32.0053317 L331.194391,35.732074 L334.891062,35.732074 L334.891062,38.6774122 L331.16432,38.6774122 L331.104177,45.8901784 C331.104177,47.5732713 331.61509,48.2345396 333.178047,48.2345396 C333.839166,48.2345396 334.410072,48.144326 334.891062,47.994119 L334.891062,50.8191725 C334.320007,51.0295219 333.538603,51.1498066 332.54685,51.1498066 C329.421233,51.1498066 327.980496,49.5374256 327.980496,46.5815178 L327.97871,35.6728248 L329.782385,32.0053317 Z M340.011946,32.6064576 C338.809843,33.8386316 336.345346,32.9370917 336.495702,31.1938564 C336.495702,30.0218247 337.427164,29.150207 338.539351,29.150207 C340.34258,29.0300712 341.334333,31.4944193 340.011946,32.6064576 Z M336.946323,35.732074 L340.132231,35.732074 L340.132231,50.9393083 L336.946323,50.9393083 L336.946323,35.732074 Z M356.430066,35.732074 L350.779959,50.9394572 L347.564278,50.9394572 L341.914022,35.732074 L345.340202,35.732074 L348.856446,45.9203985 L349.157009,47.1525725 L349.457572,45.9203985 L353.003887,35.732074 L356.430066,35.732074 Z M371,43.2154809 L371,44.4478038 L359.910136,44.4478038 C360.060343,46.8820808 361.743287,48.444889 364.117719,48.444889 C365.980941,48.444889 367.183193,47.7236272 367.754248,46.2811038 L370.879715,46.2811038 C369.918033,49.4366425 367.543749,51.2699424 364.027505,51.2699424 C361.8335,51.2699424 360.030271,50.5486807 358.64789,49.1061572 C357.295431,47.6634849 356.604092,45.7401202 356.604092,43.3656879 C356.604092,41.0515468 357.295431,39.1281821 358.64789,37.6555875 C360.0002,36.1527728 361.803578,35.4014398 364.027505,35.4014398 C368.204869,35.4014398 371,38.1663509 371,43.2154809 Z M359.940058,41.9532356 L367.78417,41.9532356 C367.754248,39.6691657 366.251433,38.196571 363.997434,38.196571 C361.713364,38.196571 360.150556,39.7593792 359.940058,41.9532356 L359.940058,41.9532356 Z" transform="translate(-171 -29)"/>
</svg>
